# AST/ASF file generated using VICON BodyLanguage
# -----------------------------------------------
:version 1.10
:name VICON
:units
  mass 1.0
  length 0.45
  angle deg
:documentation
   .ast/.asf automatically generated from VICON data using
   VICON BodyBuilder and BodyLanguage model FoxedUp or BRILLIANT.MOD
:root
   order TX TY TZ RX RY RZ
   axis XYZ
   position 0 0 0  
   orientation 0 0 0 
:bonedata
  begin
     id 1 
     name lhipjoint
     direction 0.677091 -0.635792 0.370561 
     length 2.74323 
     axis 0 0 0  XYZ
  end
  begin
     id 2 
     name lfemur
     direction 0.34202 -0.939693 0  
     length 7.44995  
     axis 0 0 20  XYZ
    dof rx ry rz
    limits (-160.0 20.0)
           (-70.0 70.0)
           (-60.0 70.0)
  end
  begin
     id 3 
     name ltibia
     direction 0.34202 -0.939693 0   
     length 7.34467   
     axis 0 0 20   XYZ
    dof rx
    limits (-10.0 170.0)
  end
  begin
     id 4 
     name lfoot
     direction 0.101953 -0.280114 0.954537   
     length 1.72105   
     axis -90 7.62852e-016 20   XYZ
    dof rx rz
    limits (-45.0 90.0)
           (-70.0 20.0)
  end
  begin
     id 5 
     name ltoes
     direction 1.53537e-011 -4.21915e-011 1   
     length 0.865872   
     axis -90 7.62852e-016 20   XYZ
    dof rx
    limits (-90.0 20.0)
  end
  begin
     id 6 
     name rhipjoint
     direction -0.695735 -0.620586 0.361699   
     length 2.81045  
     axis 0 0 0  XYZ 
  end
  begin
     id 7 
     name rfemur
     direction -0.34202 -0.939693 0   
     length 7.29387   
     axis 0 0 -20   XYZ
    dof rx ry rz
    limits (-160.0 20.0)
           (-70.0 70.0)
           (-70.0 60.0)
  end
  begin
     id 8 
     name rtibia
     direction -0.34202 -0.939693 0   
     length 7.44935   
     axis 0 0 -20   XYZ
    dof rx
    limits (-10.0 170.0)
 end
 begin
     id 9 
     name rfoot
     direction -0.104163 -0.286184 0.952496   
     length 1.77731  
     axis -90 -7.62852e-016 -20   XYZ
    dof rx rz
    limits (-45.0 90.0)
           (-20.0 70.0)
  end
  begin
     id 10 
     name rtoes
     direction -1.5355e-011 -4.21888e-011 1   
     length 0.892424   
     axis -90 -7.62852e-016 -20   XYZ
    dof rx
    limits (-90.0 20.0)
  end
  begin
     id 11 
     name lowerback
     direction 0.0100202 0.997226 -0.0737589   
     length 2.16892   
     axis 0 0 0   XYZ
    dof rx ry rz
    limits (-20.0 45.0)
           (-30.0 30.0)
           (-30.0 30.0)
  end
  begin
     id 12 
     name upperback
     direction 0.00432398 0.999988 -0.00215019   
     length 2.17326   
     axis 0 0 0   XYZ
    dof rx ry rz
    limits (-20.0 45.0)
           (-30.0 30.0)
           (-30.0 30.0)
  end
  begin
     id 13 
     name thorax
     direction -0.00195047 0.999485 0.0320434   
     length 2.18139   
     axis 0 0 0   XYZ
    dof rx ry rz
    limits (-20.0 45.0)
           (-30.0 30.0)
           (-30.0 30.0)
  end
  begin
     id 14 
     name lowerneck
     direction 0.00782762 0.986241 0.165128   
     length 1.88415   
     axis 0 0 0   XYZ
    dof rx ry rz
    limits (-20.0 45.0)
           (-30.0 30.0)
           (-30.0 30.0)
  end
  begin
     id 15 
     name upperneck
     direction 0.00988667 0.981098 -0.193258   
     length 1.9242   
     axis 0 0 0   XYZ
    dof rx ry rz
    limits (-20.0 45.0)
           (-30.0 30.0)
           (-30.0 30.0)
  end
  begin
     id 16
     name head
     direction 0.00252199 0.996513 -0.0833958  
     length 1.93887  
     axis 0 0 0   XYZ
    dof rx ry rz
    limits (-20.0 45.0)
           (-30.0 30.0)
           (-30.0 30.0)
  end
  begin
     id 17 
     name lclavicle
     direction 0.929492 0.368193 -0.0218667  
     length 3.5955  
     axis 0 0 0   XYZ
    dof ry rz
    limits (-20.0 10.0)
           (0.0 20.0)
  end
  begin
     id 18 
     name lhumerus
     direction 1 -4.48972e-011 1.41911e-027   
     length 5.2795   
     axis 180 -30 -90   XYZ
    dof rx ry rz
    limits (-60.0 90.0)
           (-90.0 90.0)
           (-90.0 90.0)
  end
  begin
     id 19
     name lradius
     direction 1 -4.48963e-011 7.05772e-027   
     length 3.53504   
     axis 180 -30 -90   XYZ
    dof rx
    limits (-10.0 170.0)
  end
  begin
     id 20
     name lwrist
     direction 1 -4.48957e-011 9.54866e-027   
     length 1.76752   
     axis -7.69462e-015 90 90   XYZ
    dof ry
    limits (-180.0 0.0)
 end
  begin
     id 21 
     name lhand
     direction 1 -4.48979e-011 1.90973e-026   
     length 0.667948   
     axis -1.21857e-014 90 90   XYZ
    dof rx rz
    limits (-90.0 90.0)
           (-45.0 45.0)
  end
  begin
     id 22 
     name lfingers
     direction 1 -4.48987e-011 3.81946e-026   
     length 0.538517   
     axis -2.43714e-014 90 90   XYZ
    dof rx
    limits (0.0 90.0)
  end
  begin
     id 23
     name lthumb
     direction 0.707107 -6.34962e-011 0.707107   
     length 0.773206   
     axis -90 45 2.85299e-015   XYZ
    dof rx rz
    limits (-45.0 45.0)
           (-45.0 45.0)
  end
  begin
     id 24 
     name rclavicle
     direction -0.898763 0.414256 -0.143584   
     length 3.5176  
     axis 0 0 0   XYZ 
    dof ry rz
    limits (-10.0 20.0)
           (-20.0 0.0)
  end
  begin
     id 25 
     name rhumerus
     direction -1 -4.48971e-011 1.129e-027  
     length 5.25035   
     axis 180 30 90   XYZ
    dof rx ry rz
    limits (-90.0 60.0)
           (-90.0 90.0)
           (-90.0 90.0)
  end
  begin
     id 26 
     name rradius
     direction -1 -4.48955e-011 6.34664e-027   
     length 3.58884   
     axis 180 30 90   XYZ
    dof rx
    limits (-10.0 170.0)
  end
  begin
     id 27 
     name rwrist
     direction -1 -4.48966e-011 9.54866e-027   
     length 1.79442   
     axis -7.69462e-015 -90 -90   XYZ
    dof ry
    limits (-180.0 0.0)
  end
  begin
     id 28
     name rhand
     direction -1 -4.48973e-011 1.90973e-026   
     length 0.779235   
     axis -1.21857e-014 -90 -90   XYZ
    dof rx rz
    limits (-90.0 90.0)
           (-45.0 45.0)
  end
  begin
     id 29
     name rfingers
     direction -1 -4.48984e-011 3.81946e-026   
     length 0.62824   
     axis -2.43714e-014 -90 -90   XYZ
    dof rx
    limits (0.0 90.0)
  end
  begin
     id 30
     name rthumb
     direction -0.707107 -6.34968e-011 0.707107   
     length 0.90203   
     axis -90 -45 -2.85299e-015   XYZ
    dof rx rz
    limits (-45.0 45.0)
           (-45.0 45.0)
  end
:hierarchy
  begin
    root lhipjoint rhipjoint lowerback
    lhipjoint lfemur
    lfemur ltibia
    ltibia lfoot
    lfoot ltoes
    rhipjoint rfemur
    rfemur rtibia
    rtibia rfoot
    rfoot rtoes
    lowerback upperback
    upperback thorax
    thorax lowerneck lclavicle rclavicle
    lowerneck upperneck
    upperneck head
    lclavicle lhumerus
    lhumerus lradius
    lradius lwrist
    lwrist lhand lthumb
    lhand lfingers
    rclavicle rhumerus
    rhumerus rradius
    rradius rwrist
    rwrist rhand rthumb
    rhand rfingers
  end

#!OML:ASF I:\Random Stuff\random\construction\7_22_03\Session 2\subj1.ASF
:FULLY-SPECIFIED
:DEGREES
1
root -8.35072 17.7133 3.17303 2.57412 61.9108 -1.08112
lowerback 2.39156 1.23856 3.56311
upperback 0.158049 1.77027 1.17318
thorax -1.10792 0.873387 -0.850125
lowerneck -18.4008 0.286158 0.930904
upperneck 28.7486 -0.9299 4.42235
head 12.6503 0.434839 1.41875
rclavicle -6.87298e-014 -1.43125e-014
rhumerus -36.3861 -6.55884 -77.3868
rradius 33.4014
rwrist -0.928436
rhand -21.1181 18.3509
rfingers 7.12502
rthumb 5.26033 -11.5638
lclavicle -6.87298e-014 -1.43125e-014
lhumerus -33.9062 -5.43631 89.7323
lradius 34.2927
lwrist 33.503
lhand -18.8281 61.2622
lfingers 7.12502
lthumb -172.529 88.8897
rfemur 6.38768 13.905 25.8227
rtibia 3.97569e-014
rfoot 9.7725 -15.4858
rtoes -23.2159
lfemur -15.6685 -2.13505 -13.2889
ltibia 34.5748
lfoot -10.3047 2.33121
ltoes -28.413
2
root -8.34462 17.7297 3.18471 2.6602 62.0079 -1.12474
lowerback 2.3512 1.24061 3.49348
upperback 0.0138685 1.77176 1.10571
thorax -1.23318 0.870508 -0.881564
lowerneck -22.023 -1.31549 -1.0428
upperneck 32.6389 -2.73864 4.48265
head 15.2027 -0.45099 1.58248
rclavicle 5.96354e-016 -2.0276e-014
rhumerus -36.4999 -6.35798 -77.8071
rradius 34.2178
rwrist -0.798087
rhand -21.1726 18.5592
rfingers 7.12502
rthumb 5.20774 -11.3568
lclavicle 5.96354e-016 -2.0276e-014
lhumerus -33.9868 -5.6956 89.6107
lradius 34.2036
lwrist 33.6152
lhand -18.8761 61.2584
lfingers 7.12502
lthumb -172.575 88.8919
rfemur 6.43268 13.8256 25.7411
rtibia 7.95139e-015
rfoot 8.17586 -16.4533
rtoes -20.6393
lfemur -15.3647 -2.21896 -13.259
ltibia 33.8044
lfoot -10.2222 2.45536
ltoes -28.0252
3
root -8.34149 17.7453 3.19477 2.74112 62.1069 -1.14969
lowerback 2.3492 1.23897 3.37704
upperback -0.103701 1.76888 1.07997
thorax -1.35552 0.866489 -0.844553
lowerneck -22.1182 -1.52184 -1.32645
upperneck 32.5934 -2.95088 4.52361
head 15.2171 -0.571873 1.60674
rclavicle -1.21756e-014 3.97569e-016
rhumerus -36.5496 -6.0966 -78.1201
rradius 34.9384
rwrist -0.662649
rhand -21.1978 18.7334
rfingers 7.12502
rthumb 5.18333 -11.1833
lclavicle -1.21756e-014 3.97569e-016
lhumerus -34.0538 -5.75434 89.5022
lradius 34.2502
lwrist 33.6656
lhand -18.9392 61.1952
lfingers 7.12502
lthumb -172.636 88.953
rfemur 5.30134 13.745 25.5896
rtibia 2.27176
rfoot 5.78414 -17.8934
rtoes -39.8635
lfemur -15.1085 -2.39574 -13.2219
ltibia 33.1394
lfoot -10.0803 2.56955
ltoes -28.1961
4
root -8.34499 17.7575 3.20481 2.7293 62.2318 -1.25798
lowerback 2.35116 1.17632 3.22775
upperback -0.214999 1.68549 1.13479
thorax -1.48003 0.823389 -0.703991
lowerneck -22.3942 -1.53272 -1.56228
upperneck 32.78 -2.87122 4.50126
head 15.3671 -0.566816 1.65891
rclavicle -2.23633e-015 1.98785e-015
rhumerus -36.5558 -5.54283 -78.4464
rradius 35.6115
rwrist -0.649292
rhand -21.3044 18.57
rfingers 7.12502
rthumb 5.08043 -11.3491
lclavicle -2.23633e-015 1.98785e-015
lhumerus -34.1009 -5.52837 89.3796
lradius 34.3117
lwrist 33.6324
lhand -18.9134 61.001
lfingers 7.12502
lthumb -172.611 89.148
rfemur 4.38654 13.6328 25.5748
rtibia 4.12038
rfoot 3.60293 -18.9395
rtoes -35.7347
lfemur -14.8798 -2.53674 -13.1108
ltibia 32.4924
lfoot -9.86936 2.54991
ltoes -29.0311
5
root -8.35686 17.7698 3.21391 2.78872 62.3913 -1.31937
lowerback 2.35217 1.04143 3.0173
upperback -0.362363 1.50622 1.24248
thorax -1.64647 0.732947 -0.471922
lowerneck -22.3136 -1.30477 -1.27607
upperneck 32.7589 -2.35715 3.71012
head 15.2947 -0.435364 1.37244
rclavicle -1.31695e-014 -7.15625e-015
rhumerus -36.5368 -4.7162 -78.7999
rradius 36.1499
rwrist -0.72436
rhand -21.6478 17.8987
rfingers 7.12502
rthumb 4.74887 -12.0281
lclavicle -1.31695e-014 -7.15625e-015
lhumerus -34.1398 -5.00178 89.2264
lradius 34.327
lwrist 33.506
lhand -18.795 60.8789
lfingers 7.12502
lthumb -172.497 89.2742
rfemur 3.83495 13.4855 25.6087
rtibia 5.16004
rfoot 1.75242 -19.6228
rtoes -31.315
lfemur -14.7732 -2.70315 -13.0024
ltibia 31.9242
lfoot -9.71252 2.49442
ltoes -29.7596
